<svg xmlns="http://www.w3.org/2000/svg" width="147" height="35" viewBox="0 0 147 35">
    <path fill="#FEFEFE" fill-rule="evenodd" d="M.485 9.867h2.478c.268 0 .485.216.485.484v5.914c0 .267.217.484.485.484h1.329a.485.485 0 0 0 .485-.484V10.35c0-.268.217-.484.485-.484H8.71a.485.485 0 0 0 .485-.484V8.057a.485.485 0 0 0-.485-.484H.485A.485.485 0 0 0 0 8.057v1.326c0 .267.217.484.485.484zm4.112 16.058A2.3 2.3 0 0 1 2.3 23.631a2.3 2.3 0 0 1 4.597 0 2.3 2.3 0 0 1-2.299 2.294zm0-6.882A4.598 4.598 0 0 0 0 23.63a4.598 4.598 0 0 0 9.195 0 4.598 4.598 0 0 0-4.598-4.588zm50.124-5.412c0-2.088 2.043-3.786 4.553-3.786s4.553 1.698 4.553 3.786v2.544a.485.485 0 0 1-.486.485h-1.459a.486.486 0 0 0-.343.142l-1.922 1.917a.486.486 0 0 1-.686 0l-1.921-1.917a.486.486 0 0 0-.344-.142h-1.459a.485.485 0 0 1-.486-.485v-2.544zm-3.035 13.146c0 .268.218.485.486.485h2.064a.485.485 0 0 0 .485-.485v-7.088h.689c.128 0 .252.05.343.142l3.178 3.171c.19.19.497.19.686 0l3.178-3.171a.486.486 0 0 1 .344-.142h.688v7.088c0 .268.217.485.485.485h2.064a.485.485 0 0 0 .486-.485v-6.603c0-.268.217-.485.486-.485h3.58a.485.485 0 0 0 .487-.485v-2.06a.485.485 0 0 0-.486-.484h-3.581a.485.485 0 0 1-.486-.485v-2.544c0-3.758-3.404-6.816-7.588-6.816s-7.588 3.058-7.588 6.816v2.544a.485.485 0 0 1-.485.485h-3.582a.485.485 0 0 0-.485.484v2.06c0 .268.217.485.485.485h3.582c.268 0 .485.217.485.485v6.603zm94.828 5.025H52.172a.485.485 0 0 0-.486.485v2.06c0 .267.218.484.486.484h94.342a.485.485 0 0 0 .486-.484v-2.06a.485.485 0 0 0-.486-.485zm0-24.23h-17.239a.485.485 0 0 0-.486.485v2.06c0 .268.218.485.486.485h6.616c.269 0 .486.217.486.484v15.69c0 .269.218.486.486.486h2.064a.485.485 0 0 0 .485-.485v-15.69c0-.268.218-.485.486-.485h6.616a.485.485 0 0 0 .486-.485v-2.06a.485.485 0 0 0-.486-.484zm-98.24 24.219h-3.29a.786.786 0 0 1-.788-.785V3.646c0-.244.179-.455.422-.484.97-.114 2.074-.127 3.36-.13V3.03h.294a.485.485 0 0 0 .486-.485V.486a.485.485 0 0 0-.486-.485h-.293c-4.64.004-8.32.157-11.17 5.36L29.397 17.71a.487.487 0 0 1-.835 0l-7.386-12.3C18.303.167 14.633.001 10 0V0h-.32a.485.485 0 0 0-.485.485v2.06c0 .268.217.485.486.485H10c1.277.002 2.373.016 3.339.13.242.03.42.24.42.484v27.003c0 .631-.512 1.143-1.145 1.143H9.682a.486.486 0 0 0-.487.486v2.065c0 .269.218.486.487.486h2.933a4.185 4.185 0 0 0 4.189-4.18V5.542c0-.456.576-.669.864-.314.358.441.704.964 1.046 1.588l9.847 16.402c.189.315.646.315.835 0l9.875-16.45c.332-.607.67-1.117 1.018-1.548.287-.355.864-.142.864.314v25.472a3.826 3.826 0 0 0 3.83 3.822h3.292a.486.486 0 0 0 .487-.486v-2.065a.486.486 0 0 0-.487-.486zM108.994 8.38a.484.484 0 0 0-.363-.807h-2.64a.487.487 0 0 0-.362.162L98.061 16.2a.486.486 0 0 1-.848-.323v-7.82a.485.485 0 0 0-.486-.484h-2.063a.485.485 0 0 0-.486.484V26.777c0 .268.217.485.486.485h2.063a.485.485 0 0 0 .486-.485v-5.035c0-.119.044-.234.123-.322l2.44-2.73a.486.486 0 0 1 .775.067l5.155 8.276a.487.487 0 0 0 .413.229h2.36a.484.484 0 0 0 .413-.74l-6.427-10.317a.484.484 0 0 1 .05-.579l6.478-7.246zM52.172 3.029h94.342a.485.485 0 0 0 .486-.485V.484a.485.485 0 0 0-.486-.484H52.172a.485.485 0 0 0-.486.485v2.06c0 .267.218.484.486.484zm64.962 7.573h8.135a.485.485 0 0 0 .485-.485v-2.06a.485.485 0 0 0-.485-.484H114.099a.485.485 0 0 0-.485.484v18.72c0 .268.217.485.486.485h11.169a.485.485 0 0 0 .485-.485v-2.06a.485.485 0 0 0-.485-.485h-8.135a.485.485 0 0 1-.485-.484v-4.332c0-.267.217-.484.485-.484h8.135a.485.485 0 0 0 .485-.485v-2.06a.485.485 0 0 0-.485-.484h-8.135a.485.485 0 0 1-.485-.485v-4.332c0-.267.217-.484.485-.484zM83.555 16.66h-5.584a.485.485 0 0 1-.486-.485v-5.089c0-.267.217-.484.486-.484h5.449c1.584 0 3.002 1.153 3.155 2.726a3.035 3.035 0 0 1-3.02 3.332zm1.655 2.793c2.633-.746 4.544-3.218 4.408-6.11-.152-3.267-2.994-5.77-6.27-5.77h-8.413a.485.485 0 0 0-.485.484v18.72c0 .268.217.485.485.485H77a.485.485 0 0 0 .486-.485v-6.603c0-.268.217-.485.486-.485h2.882c.163 0 .315.082.405.218l4.719 7.137c.09.136.242.218.405.218h2.34c.388 0 .62-.43.406-.752l-4.185-6.33a.48.48 0 0 1 .267-.727z"></path>
</svg>
